<svg width="61" height="40" viewBox="0 0 61 40" fill="none" xmlns="http://www.w3.org/2000/svg">
<path d="M14.3464 39L1 20.5L14.3464 1.22223L52.7969 1.22223C54.651 1.22223 56.4292 1.7256 57.7403 2.62161C59.0513 3.51762 59.7879 4.73286 59.7879 6.00001V34.2222C59.7879 35.4894 59.0513 36.7046 57.7403 37.6006C56.4292 38.4966 54.651 39 52.7969 39H14.3464Z" fill="#9990FF"/>
<path d="M28.0303 13.2929C27.6398 12.9024 27.0066 12.9024 26.6161 13.2929C26.2256 13.6834 26.2256 14.3166 26.6161 14.7071L28.0303 13.2929ZM39.6161 27.7072C40.0067 28.0977 40.6398 28.0977 41.0304 27.7072C41.4209 27.3166 41.4209 26.6835 41.0304 26.293L39.6161 27.7072ZM41.0304 14.7071C41.4209 14.3166 41.4209 13.6834 41.0304 13.2929C40.6398 12.9024 40.0067 12.9024 39.6161 13.2929L41.0304 14.7071ZM26.6161 26.293C26.2256 26.6835 26.2256 27.3166 26.6161 27.7072C27.0066 28.0977 27.6398 28.0977 28.0303 27.7072L26.6161 26.293ZM14.3464 39L13.5355 39.5851C13.7234 39.8456 14.0252 40 14.3464 40V39ZM1 20.5L0.177814 19.9308C-0.0633192 20.2791 -0.0588316 20.7415 0.189015 21.085L1 20.5ZM14.3464 1.22223L14.3464 0.222231C14.0183 0.222231 13.711 0.383219 13.5243 0.653012L14.3464 1.22223ZM52.7969 1.22223L52.7969 0.222229L52.7969 1.22223ZM59.7879 6.00001L60.7879 6.00001V6.00001L59.7879 6.00001ZM59.7879 34.2222L58.7879 34.2222V34.2222L59.7879 34.2222ZM52.7969 39L52.7969 40H52.7969L52.7969 39ZM26.6161 14.7071L33.1161 21.2071L34.5303 19.7929L28.0303 13.2929L26.6161 14.7071ZM33.1161 21.2071L39.6161 27.7072L41.0304 26.293L34.5303 19.7929L33.1161 21.2071ZM39.6161 13.2929L33.1161 19.7929L34.5303 21.2071L41.0304 14.7071L39.6161 13.2929ZM33.1161 19.7929L26.6161 26.293L28.0303 27.7072L34.5303 21.2071L33.1161 19.7929ZM15.1574 38.4149L1.81098 19.9149L0.189015 21.085L13.5355 39.5851L15.1574 38.4149ZM1.82219 21.0692L15.1686 1.79145L13.5243 0.653012L0.177814 19.9308L1.82219 21.0692ZM14.3464 2.22223L52.7969 2.22223L52.7969 0.222229L14.3464 0.222231L14.3464 2.22223ZM52.7969 2.22223C54.4843 2.22223 56.0577 2.6829 57.176 3.44722L58.3045 1.796C56.8007 0.768298 54.8177 0.222229 52.7969 0.222229L52.7969 2.22223ZM57.176 3.44722C58.2922 4.21007 58.7879 5.1474 58.7879 6.00001L60.7879 6.00001C60.7879 4.31833 59.8104 2.82516 58.3045 1.796L57.176 3.44722ZM58.7879 6.00001V34.2222H60.7879V6.00001H58.7879ZM58.7879 34.2222C58.7879 35.0749 58.2922 36.0122 57.176 36.775L58.3045 38.4262C59.8104 37.3971 60.7879 35.9039 60.7879 34.2222L58.7879 34.2222ZM57.176 36.775C56.0577 37.5393 54.4843 38 52.7969 38L52.7969 40C54.8177 40 56.8007 39.4539 58.3045 38.4262L57.176 36.775ZM52.7969 38H14.3464V40H52.7969V38Z" fill="#F7F9FA"/>
</svg>
